<mxfile host="app.diagrams.net" modified="2020-12-11T08:14:19.546Z" agent="5.0 (X11; Linux x86_64) AppleWebKit/537.36 (KHTML, like Gecko) Chrome/86.0.4240.111 Safari/537.36" etag="lzGJC8TCKEjfQiQzR15G" version="13.10.9" type="github">
  <diagram id="y5fudxtrOrbWpN04Q-Sm" name="Page-1">
    <mxGraphModel dx="803" dy="465" grid="1" gridSize="10" guides="1" tooltips="1" connect="1" arrows="1" fold="1" page="1" pageScale="1" pageWidth="850" pageHeight="1100" background="#F1FAEE" math="0" shadow="0">
      <root>
        <mxCell id="0" />
        <mxCell id="1" parent="0" />
        <mxCell id="X_ScjiIuByMzZCkQabom-1" value="User" style="rounded=0;whiteSpace=wrap;html=1;fillColor=#A8DADC;strokeColor=#457B9D;fontColor=#1D3557;" vertex="1" parent="1">
          <mxGeometry x="50" y="40" width="110" height="40" as="geometry" />
        </mxCell>
        <mxCell id="X_ScjiIuByMzZCkQabom-2" value="Keystone" style="rounded=0;whiteSpace=wrap;html=1;sketch=0;strokeColor=#457B9D;fillColor=#A8DADC;fontColor=#1D3557;" vertex="1" parent="1">
          <mxGeometry x="200" y="40" width="120" height="40" as="geometry" />
        </mxCell>
        <mxCell id="X_ScjiIuByMzZCkQabom-3" value="Nova" style="rounded=0;whiteSpace=wrap;html=1;sketch=0;strokeColor=#457B9D;fillColor=#A8DADC;fontColor=#1D3557;" vertex="1" parent="1">
          <mxGeometry x="370" y="40" width="120" height="40" as="geometry" />
        </mxCell>
        <mxCell id="X_ScjiIuByMzZCkQabom-4" value="" style="shape=link;html=1;strokeColor=#457B9D;fillColor=#A8DADC;fontColor=#1D3557;exitX=0.5;exitY=1;exitDx=0;exitDy=0;labelBackgroundColor=#F1FAEE;" edge="1" parent="1" source="X_ScjiIuByMzZCkQabom-1">
          <mxGeometry width="100" relative="1" as="geometry">
            <mxPoint x="360" y="240" as="sourcePoint" />
            <mxPoint x="105" y="440" as="targetPoint" />
          </mxGeometry>
        </mxCell>
        <mxCell id="X_ScjiIuByMzZCkQabom-5" value="" style="shape=link;html=1;strokeColor=#457B9D;fillColor=#A8DADC;fontColor=#1D3557;exitX=0.5;exitY=1;exitDx=0;exitDy=0;labelBackgroundColor=#F1FAEE;" edge="1" parent="1" source="X_ScjiIuByMzZCkQabom-17">
          <mxGeometry width="100" relative="1" as="geometry">
            <mxPoint x="115" y="90" as="sourcePoint" />
            <mxPoint x="260" y="440" as="targetPoint" />
          </mxGeometry>
        </mxCell>
        <mxCell id="X_ScjiIuByMzZCkQabom-6" value="" style="shape=link;html=1;strokeColor=#457B9D;fillColor=#A8DADC;fontColor=#1D3557;exitX=0.5;exitY=1;exitDx=0;exitDy=0;labelBackgroundColor=#F1FAEE;" edge="1" parent="1" source="X_ScjiIuByMzZCkQabom-3">
          <mxGeometry width="100" relative="1" as="geometry">
            <mxPoint x="410" y="90" as="sourcePoint" />
            <mxPoint x="430" y="440" as="targetPoint" />
          </mxGeometry>
        </mxCell>
        <mxCell id="X_ScjiIuByMzZCkQabom-7" value="Glance" style="rounded=0;whiteSpace=wrap;html=1;fillColor=#A8DADC;strokeColor=#457B9D;fontColor=#1D3557;" vertex="1" parent="1">
          <mxGeometry x="530" y="40" width="110" height="40" as="geometry" />
        </mxCell>
        <mxCell id="X_ScjiIuByMzZCkQabom-8" value="Neutron" style="rounded=0;whiteSpace=wrap;html=1;fillColor=#A8DADC;strokeColor=#457B9D;fontColor=#1D3557;" vertex="1" parent="1">
          <mxGeometry x="670" y="40" width="110" height="40" as="geometry" />
        </mxCell>
        <mxCell id="X_ScjiIuByMzZCkQabom-9" value="" style="shape=link;html=1;strokeColor=#457B9D;fillColor=#A8DADC;fontColor=#1D3557;exitX=0.5;exitY=1;exitDx=0;exitDy=0;labelBackgroundColor=#F1FAEE;" edge="1" parent="1" source="X_ScjiIuByMzZCkQabom-7">
          <mxGeometry width="100" relative="1" as="geometry">
            <mxPoint x="440" y="90" as="sourcePoint" />
            <mxPoint x="585" y="440" as="targetPoint" />
          </mxGeometry>
        </mxCell>
        <mxCell id="X_ScjiIuByMzZCkQabom-10" value="" style="shape=link;html=1;strokeColor=#457B9D;fillColor=#A8DADC;fontColor=#1D3557;exitX=0.5;exitY=1;exitDx=0;exitDy=0;labelBackgroundColor=#F1FAEE;" edge="1" parent="1" source="X_ScjiIuByMzZCkQabom-8">
          <mxGeometry width="100" relative="1" as="geometry">
            <mxPoint x="450" y="100" as="sourcePoint" />
            <mxPoint x="720" y="440" as="targetPoint" />
          </mxGeometry>
        </mxCell>
        <mxCell id="X_ScjiIuByMzZCkQabom-11" value="" style="endArrow=classic;html=1;strokeColor=#457B9D;fillColor=#A8DADC;fontColor=#1D3557;labelBackgroundColor=#F1FAEE;" edge="1" parent="1" source="X_ScjiIuByMzZCkQabom-12">
          <mxGeometry width="50" height="50" relative="1" as="geometry">
            <mxPoint x="110" y="120" as="sourcePoint" />
            <mxPoint x="260" y="120" as="targetPoint" />
          </mxGeometry>
        </mxCell>
        <mxCell id="X_ScjiIuByMzZCkQabom-13" value="" style="endArrow=classic;html=1;strokeColor=#457B9D;fillColor=#A8DADC;fontColor=#1D3557;labelBackgroundColor=#F1FAEE;" edge="1" parent="1" source="X_ScjiIuByMzZCkQabom-14">
          <mxGeometry width="50" height="50" relative="1" as="geometry">
            <mxPoint x="260" y="140" as="sourcePoint" />
            <mxPoint x="110" y="140" as="targetPoint" />
          </mxGeometry>
        </mxCell>
        <mxCell id="X_ScjiIuByMzZCkQabom-15" value="" style="endArrow=classic;html=1;strokeColor=#457B9D;fillColor=#A8DADC;fontColor=#1D3557;" edge="1" parent="1" source="X_ScjiIuByMzZCkQabom-17">
          <mxGeometry width="50" height="50" relative="1" as="geometry">
            <mxPoint x="110" y="180" as="sourcePoint" />
            <mxPoint x="430" y="180" as="targetPoint" />
          </mxGeometry>
        </mxCell>
        <mxCell id="X_ScjiIuByMzZCkQabom-18" value="" style="endArrow=classic;startArrow=classic;html=1;strokeColor=#457B9D;fillColor=#A8DADC;fontColor=#1D3557;" edge="1" parent="1">
          <mxGeometry width="50" height="50" relative="1" as="geometry">
            <mxPoint x="260" y="210" as="sourcePoint" />
            <mxPoint x="430" y="210" as="targetPoint" />
          </mxGeometry>
        </mxCell>
        <mxCell id="X_ScjiIuByMzZCkQabom-19" value="verify" style="text;html=1;strokeColor=#6c8ebf;fillColor=#dae8fc;align=center;verticalAlign=middle;whiteSpace=wrap;rounded=0;sketch=0;gradientColor=#7ea6e0;" vertex="1" parent="1">
          <mxGeometry x="320" y="190" width="40" height="20" as="geometry" />
        </mxCell>
        <mxCell id="X_ScjiIuByMzZCkQabom-20" value="token" style="text;html=1;strokeColor=#6c8ebf;fillColor=#dae8fc;align=center;verticalAlign=middle;whiteSpace=wrap;rounded=0;sketch=0;gradientColor=#7ea6e0;" vertex="1" parent="1">
          <mxGeometry x="320" y="220" width="40" height="20" as="geometry" />
        </mxCell>
        <mxCell id="X_ScjiIuByMzZCkQabom-21" value="" style="endArrow=classic;html=1;strokeColor=#457B9D;fillColor=#A8DADC;fontColor=#1D3557;" edge="1" parent="1" source="X_ScjiIuByMzZCkQabom-22">
          <mxGeometry width="50" height="50" relative="1" as="geometry">
            <mxPoint x="430" y="230" as="sourcePoint" />
            <mxPoint x="590" y="230" as="targetPoint" />
          </mxGeometry>
        </mxCell>
        <mxCell id="X_ScjiIuByMzZCkQabom-23" value="" style="endArrow=classic;startArrow=classic;html=1;strokeColor=#457B9D;fillColor=#A8DADC;fontColor=#1D3557;" edge="1" parent="1" source="X_ScjiIuByMzZCkQabom-24">
          <mxGeometry width="50" height="50" relative="1" as="geometry">
            <mxPoint x="260" y="270" as="sourcePoint" />
            <mxPoint x="590" y="270" as="targetPoint" />
          </mxGeometry>
        </mxCell>
        <mxCell id="X_ScjiIuByMzZCkQabom-26" value="" style="endArrow=classic;html=1;strokeColor=#457B9D;fillColor=#A8DADC;fontColor=#1D3557;" edge="1" parent="1" source="X_ScjiIuByMzZCkQabom-27">
          <mxGeometry width="50" height="50" relative="1" as="geometry">
            <mxPoint x="590" y="290" as="sourcePoint" />
            <mxPoint x="430" y="290" as="targetPoint" />
          </mxGeometry>
        </mxCell>
        <mxCell id="X_ScjiIuByMzZCkQabom-28" value="" style="endArrow=classic;html=1;strokeColor=#457B9D;fillColor=#A8DADC;fontColor=#1D3557;" edge="1" parent="1" source="X_ScjiIuByMzZCkQabom-29">
          <mxGeometry width="50" height="50" relative="1" as="geometry">
            <mxPoint x="430" y="320" as="sourcePoint" />
            <mxPoint x="720" y="320" as="targetPoint" />
          </mxGeometry>
        </mxCell>
        <mxCell id="X_ScjiIuByMzZCkQabom-30" value="" style="endArrow=classic;startArrow=classic;html=1;strokeColor=#457B9D;fillColor=#A8DADC;fontColor=#1D3557;" edge="1" parent="1" source="X_ScjiIuByMzZCkQabom-32">
          <mxGeometry width="50" height="50" relative="1" as="geometry">
            <mxPoint x="260" y="350" as="sourcePoint" />
            <mxPoint x="720" y="350" as="targetPoint" />
          </mxGeometry>
        </mxCell>
        <mxCell id="X_ScjiIuByMzZCkQabom-33" value="" style="endArrow=classic;startArrow=classic;html=1;strokeColor=#457B9D;fillColor=#A8DADC;fontColor=#1D3557;" edge="1" parent="1" source="X_ScjiIuByMzZCkQabom-34">
          <mxGeometry width="50" height="50" relative="1" as="geometry">
            <mxPoint x="430" y="380" as="sourcePoint" />
            <mxPoint x="720" y="380" as="targetPoint" />
          </mxGeometry>
        </mxCell>
        <mxCell id="X_ScjiIuByMzZCkQabom-34" value="token + verify user access to VIF" style="text;html=1;strokeColor=#6c8ebf;fillColor=#dae8fc;align=center;verticalAlign=middle;whiteSpace=wrap;rounded=0;sketch=0;gradientColor=#7ea6e0;" vertex="1" parent="1">
          <mxGeometry x="510" y="370" width="150" height="20" as="geometry" />
        </mxCell>
        <mxCell id="X_ScjiIuByMzZCkQabom-35" value="" style="endArrow=classic;startArrow=classic;html=1;strokeColor=#457B9D;fillColor=#A8DADC;fontColor=#1D3557;" edge="1" parent="1" target="X_ScjiIuByMzZCkQabom-34">
          <mxGeometry width="50" height="50" relative="1" as="geometry">
            <mxPoint x="430" y="380" as="sourcePoint" />
            <mxPoint x="720" y="380" as="targetPoint" />
          </mxGeometry>
        </mxCell>
        <mxCell id="X_ScjiIuByMzZCkQabom-22" value="token + request for image" style="text;html=1;strokeColor=#6c8ebf;fillColor=#dae8fc;align=center;verticalAlign=middle;whiteSpace=wrap;rounded=0;sketch=0;gradientColor=#7ea6e0;" vertex="1" parent="1">
          <mxGeometry x="465" y="220" width="90" height="20" as="geometry" />
        </mxCell>
        <mxCell id="X_ScjiIuByMzZCkQabom-36" value="" style="endArrow=classic;html=1;strokeColor=#457B9D;fillColor=#A8DADC;fontColor=#1D3557;" edge="1" parent="1" target="X_ScjiIuByMzZCkQabom-22">
          <mxGeometry width="50" height="50" relative="1" as="geometry">
            <mxPoint x="430" y="230" as="sourcePoint" />
            <mxPoint x="590" y="230" as="targetPoint" />
          </mxGeometry>
        </mxCell>
        <mxCell id="X_ScjiIuByMzZCkQabom-37" value="" style="shape=link;html=1;strokeColor=#457B9D;fillColor=#A8DADC;fontColor=#1D3557;exitX=0.5;exitY=1;exitDx=0;exitDy=0;labelBackgroundColor=#F1FAEE;" edge="1" parent="1" source="X_ScjiIuByMzZCkQabom-2" target="X_ScjiIuByMzZCkQabom-17">
          <mxGeometry width="100" relative="1" as="geometry">
            <mxPoint x="260" y="80" as="sourcePoint" />
            <mxPoint x="260" y="440" as="targetPoint" />
          </mxGeometry>
        </mxCell>
        <mxCell id="X_ScjiIuByMzZCkQabom-17" value="token + request for VM" style="text;html=1;strokeColor=#6c8ebf;fillColor=#dae8fc;align=center;verticalAlign=middle;whiteSpace=wrap;rounded=0;sketch=0;gradientColor=#7ea6e0;" vertex="1" parent="1">
          <mxGeometry x="190" y="170" width="140" height="20" as="geometry" />
        </mxCell>
        <mxCell id="X_ScjiIuByMzZCkQabom-38" value="" style="endArrow=classic;html=1;strokeColor=#457B9D;fillColor=#A8DADC;fontColor=#1D3557;" edge="1" parent="1" target="X_ScjiIuByMzZCkQabom-17">
          <mxGeometry width="50" height="50" relative="1" as="geometry">
            <mxPoint x="110" y="180" as="sourcePoint" />
            <mxPoint x="430" y="180" as="targetPoint" />
          </mxGeometry>
        </mxCell>
        <mxCell id="X_ScjiIuByMzZCkQabom-14" value="token" style="text;html=1;strokeColor=#6c8ebf;fillColor=#dae8fc;align=center;verticalAlign=middle;whiteSpace=wrap;rounded=0;sketch=0;gradientColor=#7ea6e0;" vertex="1" parent="1">
          <mxGeometry x="160" y="130" width="40" height="20" as="geometry" />
        </mxCell>
        <mxCell id="X_ScjiIuByMzZCkQabom-39" value="" style="endArrow=classic;html=1;strokeColor=#457B9D;fillColor=#A8DADC;fontColor=#1D3557;labelBackgroundColor=#F1FAEE;" edge="1" parent="1" target="X_ScjiIuByMzZCkQabom-14">
          <mxGeometry width="50" height="50" relative="1" as="geometry">
            <mxPoint x="260" y="140" as="sourcePoint" />
            <mxPoint x="110" y="140" as="targetPoint" />
          </mxGeometry>
        </mxCell>
        <mxCell id="X_ScjiIuByMzZCkQabom-12" value="credentials" style="text;html=1;strokeColor=#6c8ebf;fillColor=#dae8fc;align=center;verticalAlign=middle;whiteSpace=wrap;rounded=0;sketch=0;gradientColor=#7ea6e0;" vertex="1" parent="1">
          <mxGeometry x="160" y="110" width="40" height="20" as="geometry" />
        </mxCell>
        <mxCell id="X_ScjiIuByMzZCkQabom-40" value="" style="endArrow=classic;html=1;strokeColor=#457B9D;fillColor=#A8DADC;fontColor=#1D3557;labelBackgroundColor=#F1FAEE;" edge="1" parent="1" target="X_ScjiIuByMzZCkQabom-12">
          <mxGeometry width="50" height="50" relative="1" as="geometry">
            <mxPoint x="110" y="120" as="sourcePoint" />
            <mxPoint x="260" y="120" as="targetPoint" />
          </mxGeometry>
        </mxCell>
        <mxCell id="X_ScjiIuByMzZCkQabom-24" value="verify token" style="text;html=1;strokeColor=#6c8ebf;fillColor=#dae8fc;align=center;verticalAlign=middle;whiteSpace=wrap;rounded=0;sketch=0;gradientColor=#7ea6e0;" vertex="1" parent="1">
          <mxGeometry x="350" y="260" width="130" height="20" as="geometry" />
        </mxCell>
        <mxCell id="X_ScjiIuByMzZCkQabom-41" value="" style="endArrow=classic;startArrow=classic;html=1;strokeColor=#457B9D;fillColor=#A8DADC;fontColor=#1D3557;" edge="1" parent="1" target="X_ScjiIuByMzZCkQabom-24">
          <mxGeometry width="50" height="50" relative="1" as="geometry">
            <mxPoint x="260" y="270" as="sourcePoint" />
            <mxPoint x="590" y="270" as="targetPoint" />
          </mxGeometry>
        </mxCell>
        <mxCell id="X_ScjiIuByMzZCkQabom-27" value="image" style="text;html=1;strokeColor=#6c8ebf;fillColor=#dae8fc;align=center;verticalAlign=middle;whiteSpace=wrap;rounded=0;sketch=0;gradientColor=#7ea6e0;" vertex="1" parent="1">
          <mxGeometry x="490" y="280" width="40" height="20" as="geometry" />
        </mxCell>
        <mxCell id="X_ScjiIuByMzZCkQabom-42" value="" style="endArrow=classic;html=1;strokeColor=#457B9D;fillColor=#A8DADC;fontColor=#1D3557;" edge="1" parent="1" target="X_ScjiIuByMzZCkQabom-27">
          <mxGeometry width="50" height="50" relative="1" as="geometry">
            <mxPoint x="590" y="290" as="sourcePoint" />
            <mxPoint x="430" y="290" as="targetPoint" />
          </mxGeometry>
        </mxCell>
        <mxCell id="X_ScjiIuByMzZCkQabom-29" value="token + request to plug VIF into net" style="text;html=1;strokeColor=#6c8ebf;fillColor=#dae8fc;align=center;verticalAlign=middle;whiteSpace=wrap;rounded=0;sketch=0;gradientColor=#7ea6e0;" vertex="1" parent="1">
          <mxGeometry x="450" y="310" width="240" height="20" as="geometry" />
        </mxCell>
        <mxCell id="X_ScjiIuByMzZCkQabom-43" value="" style="endArrow=classic;html=1;strokeColor=#457B9D;fillColor=#A8DADC;fontColor=#1D3557;" edge="1" parent="1" target="X_ScjiIuByMzZCkQabom-29">
          <mxGeometry width="50" height="50" relative="1" as="geometry">
            <mxPoint x="430" y="320" as="sourcePoint" />
            <mxPoint x="720" y="320" as="targetPoint" />
          </mxGeometry>
        </mxCell>
        <mxCell id="X_ScjiIuByMzZCkQabom-32" value="verify token" style="text;html=1;strokeColor=#6c8ebf;fillColor=#dae8fc;align=center;verticalAlign=middle;whiteSpace=wrap;rounded=0;sketch=0;gradientColor=#7ea6e0;" vertex="1" parent="1">
          <mxGeometry x="445" y="340" width="130" height="20" as="geometry" />
        </mxCell>
        <mxCell id="X_ScjiIuByMzZCkQabom-44" value="" style="endArrow=classic;startArrow=classic;html=1;strokeColor=#457B9D;fillColor=#A8DADC;fontColor=#1D3557;" edge="1" parent="1" target="X_ScjiIuByMzZCkQabom-32">
          <mxGeometry width="50" height="50" relative="1" as="geometry">
            <mxPoint x="260" y="350" as="sourcePoint" />
            <mxPoint x="720" y="350" as="targetPoint" />
          </mxGeometry>
        </mxCell>
        <mxCell id="X_ScjiIuByMzZCkQabom-45" value="" style="endArrow=classic;html=1;strokeColor=#457B9D;fillColor=#A8DADC;fontColor=#1D3557;" edge="1" parent="1" source="X_ScjiIuByMzZCkQabom-47">
          <mxGeometry width="50" height="50" relative="1" as="geometry">
            <mxPoint x="720" y="400" as="sourcePoint" />
            <mxPoint x="430" y="410" as="targetPoint" />
          </mxGeometry>
        </mxCell>
        <mxCell id="X_ScjiIuByMzZCkQabom-47" value="succesful response" style="text;html=1;strokeColor=#6c8ebf;fillColor=#dae8fc;align=center;verticalAlign=middle;whiteSpace=wrap;rounded=0;sketch=0;gradientColor=#7ea6e0;" vertex="1" parent="1">
          <mxGeometry x="530" y="400" width="110" height="20" as="geometry" />
        </mxCell>
        <mxCell id="X_ScjiIuByMzZCkQabom-48" value="" style="endArrow=classic;html=1;strokeColor=#457B9D;fillColor=#A8DADC;fontColor=#1D3557;" edge="1" parent="1" target="X_ScjiIuByMzZCkQabom-47">
          <mxGeometry width="50" height="50" relative="1" as="geometry">
            <mxPoint x="720" y="410" as="sourcePoint" />
            <mxPoint x="430" y="400" as="targetPoint" />
          </mxGeometry>
        </mxCell>
        <mxCell id="X_ScjiIuByMzZCkQabom-50" value="" style="endArrow=classic;html=1;strokeColor=#457B9D;fillColor=#A8DADC;fontColor=#1D3557;" edge="1" parent="1" source="X_ScjiIuByMzZCkQabom-51">
          <mxGeometry width="50" height="50" relative="1" as="geometry">
            <mxPoint x="430" y="430" as="sourcePoint" />
            <mxPoint x="110" y="430" as="targetPoint" />
          </mxGeometry>
        </mxCell>
        <mxCell id="X_ScjiIuByMzZCkQabom-51" value="succesful response" style="text;html=1;strokeColor=#6c8ebf;fillColor=#dae8fc;align=center;verticalAlign=middle;whiteSpace=wrap;rounded=0;sketch=0;gradientColor=#7ea6e0;" vertex="1" parent="1">
          <mxGeometry x="205" y="420" width="110" height="20" as="geometry" />
        </mxCell>
        <mxCell id="X_ScjiIuByMzZCkQabom-52" value="" style="endArrow=classic;html=1;strokeColor=#457B9D;fillColor=#A8DADC;fontColor=#1D3557;" edge="1" parent="1" target="X_ScjiIuByMzZCkQabom-51">
          <mxGeometry width="50" height="50" relative="1" as="geometry">
            <mxPoint x="430" y="430" as="sourcePoint" />
            <mxPoint x="110" y="430" as="targetPoint" />
          </mxGeometry>
        </mxCell>
      </root>
    </mxGraphModel>
  </diagram>
</mxfile>
